<svg xmlns="http://www.w3.org/2000/svg" data-name="Layer 1" viewBox="0 0 1050 300">
  <rect width="230" height="230" x="38.2" y="35" rx="24" ry="24" style="fill:#1f1f1f"/>
  <path d="m227.8 94-9.3 85.7-55.1 51.6-3.3-106.5L227.8 94z" style="fill:#451010"/>
  <path d="M165.4 124.8 76 102.1l9.8 88.8 77.6 40.4 2-106.5z" style="fill:#b82b2b"/>
  <path d="m227.8 94-62.4 41.5L76 102.1l68.6-30.7L227.8 94z" style="fill:#fd3b3b"/>
  <path d="M310 98.3h19l44.2 68v-68h19.6v103.3h-18.9L329.7 134v67.7H310V98.3ZM490.8 169h-61.6c.9 5.4 3.2 9.8 7.1 13 3.9 3.2 8.8 4.8 14.8 4.8 7.1 0 13.3-2.5 18.5-7.5l16.1 7.5a38.2 38.2 0 0 1-34.5 16.8 38.6 38.6 0 0 1-40.6-39.8c0-11.3 3.8-21.3 11.3-29a38 38 0 0 1 28.3-11.5 39 39 0 0 1 29.3 11.5 41.7 41.7 0 0 1 11.3 30.6v3.6Zm-19.2-15.1c-1.3-4.3-3.8-7.7-7.5-10.4s-8-4-13-4a23 23 0 0 0-14 4.5 25 25 0 0 0-7 9.9h41.5Zm37-56.9h19.2v28.2h11.4v16.5h-11.4v60h-19.2v-60h-9.8v-16.5h9.8V97.1Zm40.9-1.2h19V133c3.7-3.3 7.5-5.7 11.3-7.3a29 29 0 0 1 11.5-2.4 26 26 0 0 1 19.2 7.9c4.5 4.5 6.7 11.2 6.7 20v50.5h-19v-33.5a83 83 0 0 0-1.2-18 12 12 0 0 0-4.3-7c-2-1.6-4.5-2.4-7.5-2.4-4 0-7.3 1.3-10 3.9-2.8 2.6-4.8 6-5.8 10.5-.6 2.3-.9 7.6-.9 15.8v30.6h-19V95.7ZM712.3 169h-61.6c.9 5.4 3.2 9.8 7.1 13 3.9 3.2 8.8 4.8 14.8 4.8 7.1 0 13.3-2.5 18.4-7.5l16.2 7.5a38.2 38.2 0 0 1-34.5 16.8 38.6 38.6 0 0 1-40.6-39.8c0-11.3 3.8-21.3 11.3-29a38 38 0 0 1 28.3-11.5 39 39 0 0 1 29.3 11.5 41.7 41.7 0 0 1 11.3 30.6v3.6ZM693 153.9a19.2 19.2 0 0 0-7.5-10.4c-3.7-2.7-8-4-13-4a23 23 0 0 0-14 4.5 25 25 0 0 0-7 9.9H693Zm30.3-28.7h16.4v9.7c1.8-3.8 4.2-6.7 7.1-8.7a17 17 0 0 1 17.5-1l-6 16.5a13.3 13.3 0 0 0-5.5-1.7c-3 0-5.5 1.9-7.5 5.5a50 50 0 0 0-3 21.5v34.7h-19v-76.5Zm106.8-12.8-14.6 12.8c-5-7-10.3-10.6-15.6-10.6-2.6 0-4.7.7-6.3 2-1.6 1.4-2.5 3-2.5 4.7s.6 3.4 1.8 5c1.6 2 6.4 6.4 14.4 13.2a261 261 0 0 1 13.7 11.9c4 4 6.8 7.8 8.4 11.5a29 29 0 0 1 2.5 12c0 8.5-2.9 15.5-8.8 21a32 32 0 0 1-22.9 8.4 34 34 0 0 1-19.2-5.5 42.6 42.6 0 0 1-14-17l16.5-10c5 9.2 10.7 13.8 17.2 13.8 3.3 0 6.2-1 8.5-3s3.4-4.2 3.4-6.8c0-2.3-.8-4.7-2.6-7-1.7-2.4-5.5-6-11.4-10.8a115.8 115.8 0 0 1-21.9-21.2c-3.2-5-4.9-10-4.9-15 0-7 2.8-13.2 8.2-18.3a28.4 28.4 0 0 1 20.2-7.7c5.2 0 10.1 1.2 14.8 3.5 4.6 2.4 9.7 6.8 15.1 13.1ZM844 98.3h22l21.8 33.2 21.8-33.2h22L899 148.4l34.8 53.3h-22.1l-23.8-36.4-23.8 36.4h-22.2l35-53.3-32.8-50Zm117.8 33.3h-19.2c.5-11.1 4-19.9 10.5-26.3a34 34 0 0 1 25-9.6c6.3 0 11.8 1.4 16.6 4 4.8 2.7 8.6 6.5 11.5 11.5a30 30 0 0 1 4.3 15.2 45 45 0 0 1-5.2 19.8c-3.5 7-9.9 15.4-19.1 25l-11.6 12.3h36.8v18.1h-71.6v-9.4l32-32.5a93.3 93.3 0 0 0 15.4-18.9c2.5-4.8 3.8-9 3.8-12.9s-1.3-7.3-4-9.9c-2.6-2.6-6-3.9-10.2-3.9s-7.7 1.6-10.5 4.7a19.5 19.5 0 0 0-4.5 12.8Z" data-name="Century Gothic Bold" style="fill:#fff"/>
</svg>
